<?xml version="1.0" encoding="iso-8859-1"?>
<!-- Generator: Adobe Illustrator 16.0.0, SVG Export Plug-In . SVG Version: 6.00 Build 0)  -->
<!DOCTYPE svg PUBLIC "-//W3C//DTD SVG 1.1//EN" "http://www.w3.org/Graphics/SVG/1.1/DTD/svg11.dtd">
<svg version="1.1" id="Capa_1" xmlns="http://www.w3.org/2000/svg" xmlns:xlink="http://www.w3.org/1999/xlink" x="0px"
     y="0px"
     width="16" height="16px" viewBox="0 0 31.168 31.168" style="enable-background:new 0 0 31.168 31.168;"
     xml:space="preserve">
<g>
	<path d="M31.168,3.696H20.602c-0.711-2.14-2.695-3.618-5.018-3.618c-2.322,0-4.306,1.478-5.018,3.618H0v21.422h9.268L7.44,29.007
		c-0.344,0.729-0.03,1.601,0.7,1.944c0.201,0.094,0.412,0.139,0.621,0.139c0.549,0,1.073-0.311,1.322-0.839l2.413-5.133h6.176
		l2.413,5.133c0.249,0.528,0.772,0.839,1.322,0.839c0.209,0,0.42-0.045,0.62-0.139c0.73-0.344,1.045-1.215,0.701-1.944L21.9,25.118
		h9.268V3.696z M15.584,2.026c1.23,0,2.311,0.659,2.895,1.67h-5.788C13.273,2.686,14.354,2.026,15.584,2.026z M28.246,22.195H2.922
		V6.618h25.324V22.195z"/>
</g>
    <g>
</g>
    <g>
</g>
    <g>
</g>
    <g>
</g>
    <g>
</g>
    <g>
</g>
    <g>
</g>
    <g>
</g>
    <g>
</g>
    <g>
</g>
    <g>
</g>
    <g>
</g>
    <g>
</g>
    <g>
</g>
    <g>
</g>
</svg>
